<?xml version="1.0" standalone="no"?>
<!DOCTYPE svg PUBLIC "-//W3C//DTD SVG 20010904//EN"
 "http://www.w3.org/TR/2001/REC-SVG-20010904/DTD/svg10.dtd">
<svg version="1.0" xmlns="http://www.w3.org/2000/svg"
 width="28.000000pt" height="28.000000pt" viewBox="0 0 28.000000 28.000000"
 preserveAspectRatio="xMidYMid meet">

<g transform="translate(0.000000,28.000000) scale(0.100000,-0.100000)"
fill="#000000" stroke="none">
<path d="M46 228 c-12 -7 -17 -20 -14 -44 1 -22 -3 -38 -11 -43 -18 -11 -7
-55 19 -81 41 -41 156 -15 189 41 9 15 24 30 33 33 22 5 24 26 3 26 -9 0 -18
7 -21 15 -9 24 -24 17 -24 -10 0 -40 -17 -29 -23 16 -3 22 -7 42 -9 43 -10 9
-127 12 -142 4z m132 -44 l-3 -37 -60 0 -60 -1 -3 37 -3 37 66 0 66 0 -3 -36z"/>
<path d="M68 203 c6 -2 18 -2 25 0 6 3 1 5 -13 5 -14 0 -19 -2 -12 -5z"/>
<path d="M150 185 c-10 -12 -16 -13 -26 -4 -8 6 -14 9 -14 6 0 -2 6 -10 13
-16 11 -8 18 -6 32 9 10 11 16 20 13 20 -3 0 -11 -7 -18 -15z"/>
<path d="M68 183 c6 -2 18 -2 25 0 6 3 1 5 -13 5 -14 0 -19 -2 -12 -5z"/>
<path d="M68 163 c6 -2 18 -2 25 0 6 3 1 5 -13 5 -14 0 -19 -2 -12 -5z"/>
</g>
</svg>
