<?xml version="1.0" standalone="no"?>
<!DOCTYPE svg PUBLIC "-//W3C//DTD SVG 20010904//EN"
 "http://www.w3.org/TR/2001/REC-SVG-20010904/DTD/svg10.dtd">
<svg version="1.0" xmlns="http://www.w3.org/2000/svg"
 width="28.000000pt" height="28.000000pt" viewBox="0 0 28.000000 28.000000"
 preserveAspectRatio="xMidYMid meet">

<g transform="translate(0.000000,28.000000) scale(0.100000,-0.100000)"
fill="#000000" stroke="none">
<path d="M37 233 c-4 -3 -7 -26 -7 -50 0 -23 -4 -43 -10 -43 -20 0 -10 -51 15
-75 46 -47 150 -29 195 35 12 16 28 30 36 30 8 0 14 7 14 15 0 8 -5 15 -11 15
-7 0 -18 8 -25 18 -11 14 -15 15 -23 3 -5 -8 -7 -20 -4 -28 3 -7 0 -13 -6 -13
-7 0 -11 20 -11 50 l0 50 -78 0 c-43 0 -82 -3 -85 -7z m141 -48 c-2 -20 -6
-35 -10 -35 -5 0 -33 0 -63 0 l-55 0 0 35 0 35 66 0 65 0 -3 -35z"/>
<path d="M68 203 c6 -2 18 -2 25 0 6 3 1 5 -13 5 -14 0 -19 -2 -12 -5z"/>
<path d="M150 185 c-10 -12 -16 -13 -26 -4 -8 6 -14 9 -14 6 0 -2 6 -10 13
-16 11 -8 18 -6 32 9 10 11 16 20 13 20 -3 0 -11 -7 -18 -15z"/>
<path d="M68 183 c6 -2 18 -2 25 0 6 3 1 5 -13 5 -14 0 -19 -2 -12 -5z"/>
<path d="M68 163 c6 -2 18 -2 25 0 6 3 1 5 -13 5 -14 0 -19 -2 -12 -5z"/>
</g>
</svg>
